# xmcd
#
# Track frame offsets:
# 150
# 19335
# 37430
# 58315
# 74247
# 90660
# 112525
# 135387
# 172202
# 186120
# 218160
# 254965
#
# Disc length: 3729 seconds
#
# Revision: 0
# Processed by: cddbd v1.4PL0 Copyright (c) Steve Scherf et al.
# Submitted via: Axialis_AX_CDPlayer 2.6
#
DISCID=c10e8f0c
DTITLE=강산에 Kangsane - 소풍 sopoong
DYEAR=1900
DGENRE=
TTITLE0=예럴랄라
TTITLE1=할아버지와수박
TTITLE2=화초
TTITLE3=물좀주소
TTITLE4=여느때와같이
TTITLE5=넌할수있어
TTITLE6=노란바나나
TTITLE7=라구요
TTITLE8=우연히
TTITLE9=깨어나
TTITLE10=쾌지나칭칭나네
TTITLE11=거꾸로강을거슬러오르는저힘찬연어들처럼
EXTD=강산에
EXTT0=
EXTT1=
EXTT2=
EXTT3=Original - 한대수
EXTT4=
EXTT5=
EXTT6=
EXTT7=
EXTT8=
EXTT9=
EXTT10=
EXTT11=
PLAYORDER=
